<svg height="100px" width="100px" fill="#52524e" xmlns="http://www.w3.org/2000/svg" xmlns:xlink="http://www.w3.org/1999/xlink" version="1.1" x="0px" y="0px" viewBox="0 0 100 100" style="enable-background:new 0 0 100 100;" xml:space="preserve">
  <g>
    <g>
      <path d="M50,5C25.1,5,5,25.1,5,50s20.1,45,45,45s45-20.1,45-45S74.9,5,50,5z M64.8,40.6c0.5,0.7,1.3,1.2,2.1,1.5    l11.8,3.6c2.2,0.7,3.4,3,2.8,5.2c-1.1,3.9-3.2,9.7-6.7,13.2l-15-1.4c-0.5-2.4-2.5-4.2-4.9-4.5c-3.1-0.3-5.8,2-6,5    c-0.1,1,0.1,2,0.6,2.9c-0.1,0.2-0.2,0.3-0.3,0.5C29.1,62,23.6,55,20.8,52.1l7.4-33.2c0.2-0.8,1.2-1,1.7-0.3l7.8,10.8    c6.8,1.2,7,0.9,10.2,1.5l4.4-11.1c0.3-0.8,1.5-0.8,1.8,0.1l4.5,13.5L64.8,40.6z M53.1,76.5C46.4,75,25.3,70,16.9,59.7l3.1-4.2    c4.2,3.8,10,9.8,28.3,14c0,1.3,0.4,2.6,1.3,3.6c0.9,1.1,2.3,1.8,3.7,2L53.1,76.5z M85.5,72.5c-0.2,2-1.9,3.5-3.9,3.3    c-1.5-0.1-2.7-1.2-3.1-2.6l-0.2-0.6l-20.9-1.9l-0.3,0.6c-0.7,1.3-2,2.1-3.5,1.9c-1-0.1-1.8-0.5-2.4-1.3c-0.6-0.7-0.9-1.7-0.8-2.6    c0.1-0.8,0.4-1.5,0.9-2.1c0,0,0,0-0.1,0c0.1-0.1,0.1-0.1,0.2-0.2l0.5-0.5l-0.4-0.6c-0.4-0.6-0.6-1.2-0.6-1.8c0-0.2,0-0.4,0-0.6    c0.2-2,1.9-3.4,3.9-3.3c1.8,0.2,3.2,1.6,3.3,3.5l0,0.9l14.5,1.3c0,0-0.1,0-0.1,0.1l6.4,0.6l0.2-0.8c0.4-1.7,2-2.9,3.8-2.8    c1,0.1,1.8,0.5,2.4,1.3c0.6,0.7,0.9,1.7,0.8,2.6c-0.1,0.8-0.4,1.6-1,2.2l-0.6,0.6l0.4,0.7C85.3,70.9,85.5,71.7,85.5,72.5z" />
      <circle cx="48.3" cy="44.4" r="3.1" />
    </g>
  </g>
</svg>
