<?xml version="1.0" standalone="no"?>
<!DOCTYPE svg PUBLIC "-//W3C//DTD SVG 20010904//EN"
 "http://www.w3.org/TR/2001/REC-SVG-20010904/DTD/svg10.dtd">
<svg version="1.0" xmlns="http://www.w3.org/2000/svg"
 width="700.000000pt" height="700.000000pt" viewBox="0 0 700.000000 700.000000"
 preserveAspectRatio="xMidYMid meet">
<metadata>
Created by potrace 1.14, written by Peter Selinger 2001-2017
</metadata>
<g transform="translate(0.000000,700.000000) scale(0.100000,-0.100000)"
fill="#000000" stroke="none">
<path d="M3279 6645 c-3 -2 -36 -7 -74 -10 -90 -7 -137 -13 -205 -25 -30 -5
-72 -12 -93 -16 -195 -30 -522 -136 -752 -244 -718 -338 -1307 -966 -1584
-1690 -18 -47 -37 -94 -42 -105 -20 -46 -87 -284 -105 -370 -2 -11 -8 -42 -14
-70 -41 -198 -54 -346 -55 -610 0 -432 59 -757 210 -1150 156 -405 389 -761
709 -1081 315 -314 653 -538 1051 -697 208 -83 479 -159 645 -182 25 -3 52 -8
60 -10 8 -2 35 -6 60 -9 25 -3 79 -8 120 -13 88 -9 507 -9 595 1 83 9 131 15
195 26 30 5 73 12 95 16 22 3 85 17 140 31 55 14 107 26 115 28 8 2 60 18 115
36 382 122 737 318 1065 588 57 47 317 304 360 356 14 17 44 53 66 80 129 157
276 389 378 600 62 126 166 389 166 418 0 7 3 17 7 21 4 3 8 12 9 19 2 7 10
37 18 67 44 155 85 381 104 562 10 99 9 484 -1 583 -16 152 -48 340 -78 460
-12 44 -22 87 -24 95 -8 37 -61 195 -102 300 -168 428 -414 796 -749 1120 -60
58 -129 121 -153 140 -24 19 -48 40 -55 45 -67 62 -297 218 -431 292 -268 151
-633 287 -900 338 -118 22 -205 36 -258 41 -34 3 -73 8 -87 11 -30 6 -516 14
-521 8z m-1186 -947 c10 -13 37 -50 59 -83 23 -33 46 -64 51 -70 4 -5 101
-138 214 -295 113 -157 210 -290 217 -297 6 -7 29 -15 51 -18 22 -3 60 -10 85
-15 63 -13 215 -35 320 -45 30 -4 99 -13 154 -20 54 -8 102 -13 106 -10 5 3
79 183 165 400 160 403 159 401 212 411 37 7 56 -38 217 -519 89 -269 167
-492 172 -495 6 -4 64 -70 129 -147 66 -77 122 -142 125 -145 3 -3 33 -36 66
-75 33 -38 69 -81 81 -95 91 -105 89 -104 438 -210 643 -195 605 -182 664
-235 74 -67 111 -181 89 -279 -9 -44 -63 -218 -77 -251 -5 -11 -17 -42 -26
-70 -47 -133 -164 -359 -242 -469 -80 -112 -123 -154 -152 -151 -27 3 -104 11
-206 20 -33 3 -80 7 -105 10 -25 2 -79 7 -120 11 -41 3 -86 7 -100 9 -14 2
-63 6 -110 10 -47 4 -98 9 -115 11 -16 2 -62 6 -101 9 -39 4 -79 8 -90 10 -10
2 -34 4 -51 4 -24 1 -33 6 -33 19 0 32 -57 137 -96 176 -162 161 -395 164
-552 7 -51 -51 -91 -122 -101 -181 -10 -64 -5 -155 12 -206 10 -28 15 -58 11
-68 -8 -21 -21 -19 -264 46 -347 92 -716 228 -955 353 -284 149 -449 267 -659
476 -134 133 -125 108 -91 254 20 87 96 426 101 453 3 12 14 62 25 110 12 48
23 98 26 112 2 14 20 95 39 180 19 85 37 164 39 174 3 11 16 72 30 136 14 64
27 125 30 136 3 16 129 576 140 624 2 8 15 67 28 130 31 138 40 165 64 179 26
15 65 5 86 -21z m-638 -2633 c365 -331 642 -503 1100 -683 150 -59 482 -164
623 -197 200 -47 202 -48 203 -69 4 -118 71 -236 173 -305 34 -23 100 -50 164
-67 8 -2 11 -14 8 -31 -2 -16 -5 -36 -5 -45 -1 -10 -8 -18 -17 -18 -24 0 -511
124 -629 160 -55 17 -109 32 -119 35 -37 9 -271 87 -303 101 -17 8 -36 14 -41
14 -21 0 -371 144 -507 208 -399 189 -712 406 -885 612 l-38 46 24 29 c37 45
125 165 158 213 16 23 31 42 35 42 3 0 29 -21 56 -45z m2472 -309 c84 -42 133
-118 138 -212 2 -30 5 -58 8 -60 7 -7 40 -12 132 -19 44 -3 96 -7 115 -10 19
-2 71 -6 115 -10 44 -3 94 -8 110 -10 17 -2 66 -7 110 -10 44 -3 98 -8 120
-11 38 -4 77 -7 224 -19 35 -3 67 -7 70 -10 9 -5 73 -13 171 -21 47 -3 92 -7
100 -9 8 -1 53 -6 100 -9 82 -7 86 -6 87 13 4 48 55 137 100 173 165 132 400
18 397 -192 -2 -76 -21 -125 -70 -180 l-36 -39 33 -66 c51 -103 43 -184 -28
-272 -87 -109 -258 -119 -356 -20 -37 37 -62 81 -81 140 -3 10 -16 17 -33 18
-15 0 -35 2 -44 4 -9 1 -59 6 -110 10 -52 4 -105 8 -119 10 -14 2 -59 6 -100
9 -41 4 -91 9 -110 11 -19 2 -69 7 -110 10 -41 3 -95 8 -120 10 -66 7 -136 13
-215 20 -38 3 -86 8 -105 10 -19 2 -73 7 -120 10 -47 4 -96 8 -110 10 -14 2
-57 7 -97 10 l-72 6 -35 -55 c-19 -30 -52 -66 -73 -80 -165 -108 -387 14 -384
212 0 60 34 143 77 189 13 14 24 28 24 30 0 2 -11 20 -24 41 -81 124 -45 285
80 358 83 49 159 52 241 10z"/>
<path d="M3306 4096 c-122 -45 -177 -199 -112 -310 113 -194 401 -115 399 109
0 85 -41 153 -115 191 -43 22 -125 27 -172 10z"/>
</g>
</svg>
