<svg xmlns="http://www.w3.org/2000/svg">
  <symbol id="logo" viewBox="0 0 100 100">
    <g fill="currentColor">
      <path d="M50,5C25.1,5,5,25.1,5,50s20.1,45,45,45s45-20.1,45-45S74.9,5,50,5z M64.8,40.6c0.5,0.7,1.3,1.2,2.1,1.5    l11.8,3.6c2.2,0.7,3.4,3,2.8,5.2c-1.1,3.9-3.2,9.7-6.7,13.2l-15-1.4c-0.5-2.4-2.5-4.2-4.9-4.5c-3.1-0.3-5.8,2-6,5    c-0.1,1,0.1,2,0.6,2.9c-0.1,0.2-0.2,0.3-0.3,0.5C29.1,62,23.6,55,20.8,52.1l7.4-33.2c0.2-0.8,1.2-1,1.7-0.3l7.8,10.8    c6.8,1.2,7,0.9,10.2,1.5l4.4-11.1c0.3-0.8,1.5-0.8,1.8,0.1l4.5,13.5L64.8,40.6z M53.1,76.5C46.4,75,25.3,70,16.9,59.7l3.1-4.2    c4.2,3.8,10,9.8,28.3,14c0,1.3,0.4,2.6,1.3,3.6c0.9,1.1,2.3,1.8,3.7,2L53.1,76.5z M85.5,72.5c-0.2,2-1.9,3.5-3.9,3.3    c-1.5-0.1-2.7-1.2-3.1-2.6l-0.2-0.6l-20.9-1.9l-0.3,0.6c-0.7,1.3-2,2.1-3.5,1.9c-1-0.1-1.8-0.5-2.4-1.3c-0.6-0.7-0.9-1.7-0.8-2.6    c0.1-0.8,0.4-1.5,0.9-2.1c0,0,0,0-0.1,0c0.1-0.1,0.1-0.1,0.2-0.2l0.5-0.5l-0.4-0.6c-0.4-0.6-0.6-1.2-0.6-1.8c0-0.2,0-0.4,0-0.6    c0.2-2,1.9-3.4,3.9-3.3c1.8,0.2,3.2,1.6,3.3,3.5l0,0.9l14.5,1.3c0,0-0.1,0-0.1,0.1l6.4,0.6l0.2-0.8c0.4-1.7,2-2.9,3.8-2.8    c1,0.1,1.8,0.5,2.4,1.3c0.6,0.7,0.9,1.7,0.8,2.6c-0.1,0.8-0.4,1.6-1,2.2l-0.6,0.6l0.4,0.7C85.3,70.9,85.5,71.7,85.5,72.5z" />
      <circle cx="48.3" cy="44.4" r="3.1" />
    </g>
  </symbol>
  <symbol id="email" viewBox="0 0 512 512">
    <path
        fill="currentColor"
        d="M504 232C504 95.751 394.053 8 256 8 118.94 8 8 118.919 8 256c0 137.059 110.919 248 248 248 52.926 0 104.681-17.079 147.096-48.321 5.501-4.052 6.423-11.924 2.095-17.211l-15.224-18.597c-4.055-4.954-11.249-5.803-16.428-2.041C339.547 442.517 298.238 456 256 456c-110.28 0-200-89.72-200-200S145.72 56 256 56c109.469 0 200 65.02 200 176 0 63.106-42.478 98.29-83.02 98.29-19.505 0-20.133-12.62-16.366-31.463l28.621-148.557c1.426-7.402-4.245-14.27-11.783-14.27h-39.175a12.005 12.005 0 0 0-11.784 9.735c-1.102 5.723-1.661 8.336-2.28 13.993-11.923-19.548-35.878-31.068-65.202-31.068C183.412 128.66 120 191.149 120 281.53c0 61.159 32.877 102.11 93.18 102.11 29.803 0 61.344-16.833 79.749-42.239 4.145 30.846 28.497 38.01 59.372 38.01C451.467 379.41 504 315.786 504 232zm-273.9 97.35c-28.472 0-45.47-19.458-45.47-52.05 0-57.514 39.56-93.41 74.61-93.41 30.12 0 45.471 21.532 45.471 51.58 0 46.864-33.177 93.88-74.611 93.88z"
    />
  </symbol>
  <symbol id="github" viewBox="0 0 496 512">
    <path
      fill="currentColor"
      d="M165.9 397.4c0 2-2.3 3.6-5.2 3.6-3.3.3-5.6-1.3-5.6-3.6 0-2 2.3-3.6 5.2-3.6 3-.3 5.6 1.3 5.6 3.6zm-31.1-4.5c-.7 2 1.3 4.3 4.3 4.9 2.6 1 5.6 0 6.2-2s-1.3-4.3-4.3-5.2c-2.6-.7-5.5.3-6.2 2.3zm44.2-1.7c-2.9.7-4.9 2.6-4.6 4.9.3 2 2.9 3.3 5.9 2.6 2.9-.7 4.9-2.6 4.6-4.6-.3-1.9-3-3.2-5.9-2.9zM244.8 8C106.1 8 0 113.3 0 252c0 110.9 69.8 205.8 169.5 239.2 12.8 2.3 17.3-5.6 17.3-12.1 0-6.2-.3-40.4-.3-61.4 0 0-70 15-84.7-29.8 0 0-11.4-29.1-27.8-36.6 0 0-22.9-15.7 1.6-15.4 0 0 24.9 2 38.6 25.8 21.9 38.6 58.6 27.5 72.9 20.9 2.3-16 8.8-27.1 16-33.7-55.9-6.2-112.3-14.3-112.3-110.5 0-27.5 7.6-41.3 23.6-58.9-2.6-6.5-11.1-33.3 2.6-67.9 20.9-6.5 69 27 69 27 20-5.6 41.5-8.5 62.8-8.5s42.8 2.9 62.8 8.5c0 0 48.1-33.6 69-27 13.7 34.7 5.2 61.4 2.6 67.9 16 17.7 25.8 31.5 25.8 58.9 0 96.5-58.9 104.2-114.8 110.5 9.2 7.9 17 22.9 17 46.4 0 33.7-.3 75.4-.3 83.6 0 6.5 4.6 14.4 17.3 12.1C428.2 457.8 496 362.9 496 252 496 113.3 383.5 8 244.8 8zM97.2 352.9c-1.3 1-1 3.3.7 5.2 1.6 1.6 3.9 2.3 5.2 1 1.3-1 1-3.3-.7-5.2-1.6-1.6-3.9-2.3-5.2-1zm-10.8-8.1c-.7 1.3.3 2.9 2.3 3.9 1.6 1 3.6.7 4.3-.7.7-1.3-.3-2.9-2.3-3.9-2-.6-3.6-.3-4.3.7zm32.4 35.6c-1.6 1.3-1 4.3 1.3 6.2 2.3 2.3 5.2 2.6 6.5 1 1.3-1.3.7-4.3-1.3-6.2-2.2-2.3-5.2-2.6-6.5-1zm-11.4-14.7c-1.6 1-1.6 3.6 0 5.9 1.6 2.3 4.3 3.3 5.6 2.3 1.6-1.3 1.6-3.9 0-6.2-1.4-2.3-4-3.3-5.6-2z"
    />
  </symbol>
  <symbol id="linkedin" viewBox="0 0 448 512">
    <path
      fill="currentColor"
      d="M416 32H31.9C14.3 32 0 46.5 0 64.3v383.4C0 465.5 14.3 480 31.9 480H416c17.6 0 32-14.5 32-32.3V64.3c0-17.8-14.4-32.3-32-32.3zM135.4 416H69V202.2h66.5V416zm-33.2-243c-21.3 0-38.5-17.3-38.5-38.5S80.9 96 102.2 96c21.2 0 38.5 17.3 38.5 38.5 0 21.3-17.2 38.5-38.5 38.5zm282.1 243h-66.4V312c0-24.8-.5-56.7-34.5-56.7-34.6 0-39.9 27-39.9 54.9V416h-66.4V202.2h63.7v29.2h.9c8.9-16.8 30.6-34.5 62.9-34.5 67.2 0 79.7 44.3 79.7 101.9V416z"
    />
  </symbol>
  <symbol id="twitter" viewBox="0 0 512 512">
    <path
      fill="currentColor"
      d="M459.37 151.716c.325 4.548.325 9.097.325 13.645 0 138.72-105.583 298.558-298.558 298.558-59.452 0-114.68-17.219-161.137-47.106 8.447.974 16.568 1.299 25.34 1.299 49.055 0 94.213-16.568 130.274-44.832-46.132-.975-84.792-31.188-98.112-72.772 6.498.974 12.995 1.624 19.818 1.624 9.421 0 18.843-1.3 27.614-3.573-48.081-9.747-84.143-51.98-84.143-102.985v-1.299c13.969 7.797 30.214 12.67 47.431 13.319-28.264-18.843-46.781-51.005-46.781-87.391 0-19.492 5.197-37.36 14.294-52.954 51.655 63.675 129.3 105.258 216.365 109.807-1.624-7.797-2.599-15.918-2.599-24.04 0-57.828 46.782-104.934 104.934-104.934 30.213 0 57.502 12.67 76.67 33.137 23.715-4.548 46.456-13.32 66.599-25.34-7.798 24.366-24.366 44.833-46.132 57.827 21.117-2.273 41.584-8.122 60.426-16.243-14.292 20.791-32.161 39.308-52.628 54.253z"
    />
  </symbol>
  <symbol id="rss" viewBox="0 0 448 512">
    <path
      fill="currentColor"
      d="M128.081 415.959c0 35.369-28.672 64.041-64.041 64.041S0 451.328 0 415.959s28.672-64.041 64.041-64.041 64.04 28.673 64.04 64.041zm175.66 47.25c-8.354-154.6-132.185-278.587-286.95-286.95C7.656 175.765 0 183.105 0 192.253v48.069c0 8.415 6.49 15.472 14.887 16.018 111.832 7.284 201.473 96.702 208.772 208.772.547 8.397 7.604 14.887 16.018 14.887h48.069c9.149.001 16.489-7.655 15.995-16.79zm144.249.288C439.596 229.677 251.465 40.445 16.503 32.01 7.473 31.686 0 38.981 0 48.016v48.068c0 8.625 6.835 15.645 15.453 15.999 191.179 7.839 344.627 161.316 352.465 352.465.353 8.618 7.373 15.453 15.999 15.453h48.068c9.034-.001 16.329-7.474 16.005-16.504z"
    />
  </symbol>
</svg>